PathFileType	4	(X/Y/Z)	OpenSim_Sub05_CSBaseline_Magnet.trc
DataRate	CameraRate	NumFrames	NumMarkers	Units	OrigDataRate	OrigDataStartFrame	OrigNumFrames
100	100	30	8	m	100	3959	10557
Frame#	Time	torso_imu_offset_imu	pelvis_imu_offset_imu	tibia_r_imu_offset_imu	femur_r_imu_offset_imu	tibia_l_imu_offset_imu	femur_l_imu_offset_imu	toes_r_imu_offset_imu	toes_l_imu_offset_imu
				X1	Y1	Z1	X2	Y2	Z2	X3	Y3	Z3	X4	Y4	Z4	X5	Y5	Z5	X6	Y6	Z6	X7	Y7	Z7	X8		Y8	Z8	

3959	39.58000000	-0.91277500	-0.20143978	0.13353699	-0.69117811	0.27275879	-0.60024187	-0.23576804	-0.77037234	-0.20041048	-0.78621606	-0.34520494	-0.04683644	-0.68960974	0.35072068	0.27222755	-0.63592778	0.13369194	0.21900841	-0.79716349	-0.33659217	0.06637470	-0.66568634	-0.26423757	-0.39443111
3960	39.59000000	-0.91195868	-0.21038218	0.13060099	-0.69069641	0.26858331	-0.60322384	-0.21553082	-0.78189034	-0.18763977	-0.79245487	-0.33568451	-0.05420426	-0.68325343	0.36041371	0.27086823	-0.63247118	0.14380898	0.22616711	-0.79277786	-0.34982916	0.10393915	-0.66893995	-0.26474398	-0.39582426
3961	39.60000000	-0.90919348	-0.21645588	0.13156105	-0.68854425	0.27188632	-0.60197827	-0.19081562	-0.78753656	-0.16603082	-0.80174932	-0.31736895	-0.06685360	-0.68128117	0.36075379	0.28255837	-0.62591705	0.14831577	0.23103919	-0.78047885	-0.36020670	0.14243759	-0.66883670	-0.26900217	-0.38551569
3962	39.61000000	-0.90478504	-0.22208081	0.12566162	-0.68436561	0.27284333	-0.60135610	-0.17417774	-0.79251996	-0.14150878	-0.80844726	-0.29325818	-0.08057341	-0.68172952	0.36566793	0.28626106	-0.62294107	0.15728391	0.23128555	-0.76461239	-0.36798340	0.17423837	-0.67059415	-0.27392706	-0.38632479
3963	39.62000000	-0.90290192	-0.22636190	0.12854920	-0.68514499	0.27507588	-0.60056466	-0.15827468	-0.80121842	-0.13586351	-0.81573365	-0.27308772	-0.09041700	-0.68259444	0.36944197	0.28368466	-0.62062926	0.15669241	0.24264024	-0.75798969	-0.37484873	0.19979456	-0.67100031	-0.27527864	-0.38350617
3964	39.63000000	-0.90134771	-0.23461173	0.13315567	-0.68442635	0.27090328	-0.60663801	-0.14058559	-0.80487791	-0.12771774	-0.82377141	-0.25985919	-0.10114954	-0.67618149	0.37248285	0.28694996	-0.62062469	0.16447260	0.25067999	-0.74729317	-0.37961786	0.21371280	-0.67295685	-0.27349817	-0.37839070
3965	39.64000000	-0.90417550	-0.23718384	0.12415491	-0.68160152	0.26680607	-0.60650505	-0.12875339	-0.80672282	-0.13056798	-0.82708813	-0.24378477	-0.10468940	-0.66759207	0.37913620	0.29165386	-0.61878174	0.16762646	0.25083942	-0.74667836	-0.38047594	0.22032207	-0.67189357	-0.27085397	-0.37973646
3966	39.65000000	-0.89927920	-0.24866193	0.12880904	-0.68079644	0.26725235	-0.60819156	-0.11927784	-0.80776722	-0.13246961	-0.83080768	-0.23316641	-0.11485492	-0.66674389	0.38356861	0.29234405	-0.62016963	0.17187259	0.25245922	-0.74408852	-0.37992905	0.21437473	-0.67253398	-0.27159569	-0.37159645
3967	39.66000000	-0.89641532	-0.24766498	0.13369609	-0.68218408	0.26455933	-0.61468132	-0.12851334	-0.80487985	-0.15253193	-0.83555209	-0.22311772	-0.11870177	-0.66407489	0.39089663	0.29346007	-0.61977787	0.17612043	0.25371885	-0.74618111	-0.37093130	0.20960872	-0.67468425	-0.27591123	-0.37235676
3968	39.67000000	-0.89921599	-0.25590022	0.12578889	-0.67444832	0.26922665	-0.61149305	-0.13254124	-0.79703785	-0.17652480	-0.84012437	-0.20722235	-0.12119554	-0.65886416	0.38834604	0.29566132	-0.61646235	0.17719032	0.25089650	-0.74735327	-0.36565651	0.19680762	-0.67800299	-0.27875383	-0.37501229
3969	39.68000000	-0.89610071	-0.26124737	0.12338727	-0.67525336	0.27046716	-0.61198453	-0.13725389	-0.79129651	-0.18308052	-0.84558809	-0.19131604	-0.12946033	-0.65772462	0.39256168	0.29980039	-0.61789463	0.18347314	0.25546672	-0.75114828	-0.35606780	0.18999559	-0.67265486	-0.28159508	-0.37148566
3970	39.69000000	-0.89419457	-0.26787991	0.12372789	-0.67739746	0.26637030	-0.61220321	-0.14897610	-0.78919220	-0.19060944	-0.85524992	-0.18119338	-0.13151640	-0.65914143	0.40338301	0.29910714	-0.60792795	0.18601670	0.25951128	-0.74980401	-0.35444180	0.17874066	-0.67184144	-0.28991590	-0.36504401
3971	39.70000000	-0.89494198	-0.27068304	0.12778161	-0.67543255	0.27200623	-0.61662188	-0.16545315	-0.78525219	-0.18531288	-0.85394937	-0.17583553	-0.13192508	-0.65352403	0.40524544	0.29570515	-0.61025609	0.19410014	0.26100880	-0.75733407	-0.34414499	0.16334751	-0.67322498	-0.28260383	-0.37056441
3972	39.71000000	-0.89247651	-0.27149479	0.12705321	-0.67308756	0.26996840	-0.61398425	-0.17924268	-0.78304990	-0.18225398	-0.85527619	-0.16274736	-0.12847263	-0.65021696	0.40707940	0.29814353	-0.61066585	0.19282439	0.26427688	-0.76338792	-0.33436346	0.13650798	-0.67326557	-0.27927276	-0.36705356
3973	39.72000000	-0.89447470	-0.27487839	0.12816304	-0.67331681	0.27316558	-0.61555827	-0.20438911	-0.77797746	-0.18018707	-0.86127436	-0.15388005	-0.13014972	-0.64636611	0.41744934	0.30316633	-0.60294274	0.19531614	0.26054432	-0.76113950	-0.32896433	0.12478395	-0.67144453	-0.28717796	-0.36714337
3974	39.73000000	-0.88901241	-0.28199430	0.12795490	-0.67939072	0.27639495	-0.62038505	-0.22375533	-0.77170567	-0.17432010	-0.86118344	-0.14838596	-0.13608522	-0.64533673	0.42372570	0.30224271	-0.60203778	0.20378751	0.26193613	-0.76363450	-0.31180522	0.10106456	-0.67013125	-0.28501593	-0.36214721
3975	39.74000000	-0.89104908	-0.27993053	0.12496472	-0.67127274	0.27267530	-0.61576766	-0.24855582	-0.76409041	-0.16491233	-0.86865140	-0.14151994	-0.12590837	-0.64418372	0.42838857	0.30045849	-0.60011361	0.20441117	0.26686985	-0.77057016	-0.29962146	0.07727764	-0.67447557	-0.28478006	-0.36384023
3976	39.75000000	-0.88870194	-0.28117102	0.12455981	-0.66970900	0.27964374	-0.62021757	-0.26986748	-0.75566307	-0.16594464	-0.86833178	-0.13868770	-0.12899233	-0.64168274	0.42849765	0.30341156	-0.60211130	0.21032476	0.26185180	-0.77415019	-0.28394870	0.04972346	-0.67358081	-0.28666553	-0.36342916
3977	39.76000000	-0.89091812	-0.28522362	0.12488165	-0.66965058	0.28040229	-0.62325756	-0.29583125	-0.74648952	-0.17140634	-0.86530220	-0.13483924	-0.12463594	-0.63980372	0.43579452	0.29891405	-0.59784430	0.21798972	0.26879967	-0.77627153	-0.26645224	0.02801612	-0.67344338	-0.28232497	-0.36507832
3978	39.77000000	-0.88785936	-0.28402591	0.12444301	-0.66847765	0.28116480	-0.62020327	-0.32651426	-0.73193183	-0.16582768	-0.87147885	-0.13514768	-0.12174917	-0.63750070	0.43851874	0.30350637	-0.59385870	0.21340249	0.26526415	-0.77972135	-0.24996768	0.00342177	-0.66918010	-0.28380588	-0.36097148
3979	39.78000000	-0.88311548	-0.29153267	0.12680327	-0.66862047	0.27935351	-0.62204039	-0.35565160	-0.72332669	-0.16686766	-0.87149816	-0.13578910	-0.11551468	-0.63591948	0.43916853	0.30124446	-0.59191387	0.22323915	0.27111928	-0.78765217	-0.23509364	-0.03339313	-0.67264880	-0.29011150	-0.36745820
3980	39.79000000	-0.88335727	-0.29175722	0.12722476	-0.66754521	0.27491766	-0.62009237	-0.38634233	-0.70533753	-0.16259797	-0.87234323	-0.12712651	-0.10918273	-0.62986448	0.44373359	0.30517298	-0.59199570	0.22499245	0.27668603	-0.78348273	-0.22078631	-0.05717847	-0.67753252	-0.28660629	-0.36563638
3981	39.80000000	-0.88110941	-0.29559361	0.12800719	-0.66123678	0.27958988	-0.62436242	-0.41199923	-0.68888390	-0.16500249	-0.87273110	-0.13056177	-0.10549526	-0.62692101	0.44623105	0.30395902	-0.58805026	0.23029519	0.27060884	-0.78610569	-0.20538180	-0.08638507	-0.67589700	-0.29118516	-0.36022181
3982	39.81000000	-0.88343383	-0.29813943	0.12337563	-0.66114123	0.27326351	-0.63076807	-0.44384234	-0.67039312	-0.16276786	-0.87467723	-0.13966099	-0.09794617	-0.62087925	0.45020820	0.30277498	-0.58983637	0.23496650	0.27674867	-0.78095576	-0.18528356	-0.12136853	-0.67190122	-0.28957527	-0.36263940
3983	39.82000000	-0.88649109	-0.29807324	0.12840817	-0.66075725	0.27418244	-0.63124601	-0.47599691	-0.64801626	-0.15733793	-0.87154622	-0.13934007	-0.09485799	-0.62071726	0.45358049	0.30755158	-0.58359842	0.23856968	0.27970619	-0.78163151	-0.16809027	-0.15174386	-0.66919443	-0.28942147	-0.36063550
3984	39.83000000	-0.87753509	-0.30659355	0.12651955	-0.65929789	0.27170624	-0.63467204	-0.50358585	-0.62274142	-0.15495935	-0.87216891	-0.14774646	-0.07696309	-0.62155066	0.46468557	0.30811475	-0.58063154	0.24062729	0.27997127	-0.77158740	-0.15856370	-0.18069307	-0.67750777	-0.28924339	-0.36532888
3985	39.84000000	-0.88230670	-0.30446709	0.13068195	-0.66129811	0.26676501	-0.63667752	-0.53444603	-0.60272998	-0.14628109	-0.86960208	-0.15270037	-0.07668905	-0.61328641	0.46358673	0.30807809	-0.57985654	0.24949651	0.27459956	-0.76304590	-0.13825178	-0.21167825	-0.67690182	-0.28682096	-0.36823534
3986	39.85000000	-0.88418399	-0.30023994	0.12765131	-0.66043985	0.26934096	-0.63357799	-0.55599376	-0.57904499	-0.14815637	-0.86681656	-0.16679171	-0.06615196	-0.60884039	0.46664379	0.30591483	-0.57963456	0.25621828	0.28400040	-0.75316225	-0.12195368	-0.24302635	-0.67593404	-0.28260089	-0.36538330
3987	39.86000000	-0.88140575	-0.31035076	0.12558580	-0.65894662	0.26482626	-0.63703684	-0.58217187	-0.54716648	-0.15286843	-0.86049244	-0.17530623	-0.05678542	-0.60980405	0.47072569	0.30661761	-0.57630359	0.26003007	0.28962643	-0.74313116	-0.11051659	-0.27468980	-0.68127269	-0.28280684	-0.36704037
3988	39.87000000	-0.87546615	-0.31038970	0.12425683	-0.66164027	0.26160749	-0.63679082	-0.60501480	-0.52347185	-0.15513963	-0.86060043	-0.18925565	-0.04958566	-0.61468856	0.47503366	0.30770238	-0.57443473	0.26460013	0.28405613	-0.73619374	-0.09706837	-0.30372194	-0.67941857	-0.28600244	-0.36570171
